<svg width="805" height="109" viewBox="0 0 805 109" fill="none" xmlns="http://www.w3.org/2000/svg">
<g clip-path="url(#clip0_196_125)">
<path d="M153.56 47.46C152.92 47.46 152.39 47.26 151.96 46.85C151.53 46.44 151.32 45.94 151.32 45.35C151.32 44.71 151.53 44.19 151.96 43.78C152.39 43.38 152.92 43.17 153.56 43.17H169.88C170.52 43.17 171.05 43.37 171.48 43.78C171.91 44.19 172.12 44.71 172.12 45.35C172.12 45.95 171.91 46.45 171.48 46.85C171.05 47.26 170.52 47.46 169.88 47.46H153.56ZM169.49 76.9C167.23 76.9 165.21 76.37 163.44 75.3C161.67 74.23 160.27 72.77 159.25 70.92C158.23 69.06 157.71 66.94 157.71 64.55V33.25C157.71 32.52 157.93 31.93 158.38 31.46C158.83 30.99 159.41 30.76 160.14 30.76C160.87 30.76 161.46 30.99 161.93 31.46C162.4 31.93 162.63 32.53 162.63 33.25V64.55C162.63 66.73 163.27 68.51 164.55 69.89C165.83 71.28 167.47 71.97 169.48 71.97H171.21C171.89 71.97 172.45 72.2 172.87 72.67C173.29 73.14 173.51 73.74 173.51 74.46C173.51 75.18 173.25 75.77 172.74 76.22C172.23 76.67 171.59 76.89 170.82 76.89H169.48L169.49 76.9Z" fill="#5B6972"/>
<path d="M177.75 62.63C176.98 62.63 176.37 62.4 175.93 61.93C175.48 61.46 175.26 60.86 175.26 60.14V29.42C175.26 28.65 175.48 28.04 175.93 27.6C176.38 27.15 176.99 26.93 177.75 26.93C178.48 26.93 179.06 27.15 179.51 27.6C179.96 28.05 180.18 28.66 180.18 29.42V60.14C180.18 60.87 179.96 61.46 179.51 61.93C179.06 62.4 178.48 62.63 177.75 62.63ZM177.75 76.9C176.98 76.9 176.37 76.68 175.93 76.23C175.48 75.78 175.26 75.2 175.26 74.47V44.39C175.26 43.62 175.48 43.01 175.93 42.57C176.38 42.12 176.99 41.9 177.75 41.9C178.48 41.9 179.06 42.12 179.51 42.57C179.96 43.02 180.18 43.63 180.18 44.39V74.47C180.18 75.2 179.96 75.78 179.51 76.23C179.06 76.68 178.48 76.9 177.75 76.9ZM205.27 76.9C204.54 76.9 203.95 76.67 203.48 76.2C203.01 75.73 202.78 75.16 202.78 74.47V57.83C202.78 55.18 202.28 53.01 201.28 51.3C200.28 49.59 198.91 48.31 197.18 47.46C195.45 46.61 193.5 46.18 191.32 46.18C189.14 46.18 187.34 46.59 185.66 47.4C183.97 48.21 182.64 49.32 181.66 50.73C180.68 52.14 180.19 53.74 180.19 55.53H176.67C176.75 52.84 177.48 50.44 178.85 48.33C180.22 46.22 182.03 44.55 184.29 43.34C186.55 42.12 189.07 41.52 191.84 41.52C194.87 41.52 197.58 42.15 199.97 43.41C202.36 44.67 204.25 46.51 205.63 48.95C207.02 51.38 207.71 54.35 207.71 57.85V74.49C207.71 75.17 207.47 75.75 207.01 76.22C206.55 76.69 205.96 76.92 205.28 76.92L205.27 76.9Z" fill="#5B6972"/>
<path d="M228.18 77.22C224.72 77.22 221.66 76.46 219 74.95C216.33 73.44 214.24 71.33 212.73 68.65C211.22 65.96 210.46 62.89 210.46 59.43C210.46 55.97 211.17 52.85 212.6 50.18C214.03 47.51 216 45.41 218.52 43.88C221.04 42.35 223.94 41.58 227.22 41.58C230.5 41.58 233.29 42.32 235.7 43.79C238.11 45.26 239.98 47.3 241.3 49.9C242.62 52.5 243.28 55.47 243.28 58.8C243.28 59.48 243.07 60.03 242.64 60.43C242.21 60.84 241.66 61.04 240.98 61.04H213.78V56.94H241.49L238.74 58.92C238.78 56.45 238.33 54.23 237.4 52.26C236.46 50.3 235.13 48.76 233.4 47.65C231.67 46.54 229.61 45.99 227.22 45.99C224.83 45.99 222.65 46.57 220.82 47.72C218.98 48.87 217.57 50.46 216.56 52.49C215.56 54.52 215.06 56.83 215.06 59.43C215.06 62.03 215.63 64.34 216.76 66.34C217.89 68.35 219.44 69.92 221.4 71.08C223.36 72.23 225.62 72.81 228.18 72.81C229.72 72.81 231.26 72.54 232.82 72.01C234.38 71.48 235.62 70.81 236.56 69.99C237.03 69.61 237.56 69.4 238.16 69.38C238.76 69.36 239.27 69.52 239.7 69.86C240.25 70.37 240.54 70.93 240.56 71.52C240.58 72.12 240.34 72.63 239.82 73.06C238.41 74.26 236.62 75.25 234.44 76.04C232.26 76.83 230.17 77.22 228.17 77.22H228.18Z" fill="#5B6972"/>
<path d="M281.13 77.21C276.92 77.21 273.2 76.29 269.98 74.44C266.76 72.6 264.22 70.05 262.38 66.8C260.53 63.55 259.61 59.82 259.61 55.61C259.61 51.4 260.53 47.59 262.38 44.34C264.22 41.09 266.76 38.54 269.98 36.7C273.2 34.86 276.92 33.93 281.13 33.93C285.34 33.93 288.98 34.85 292.2 36.7C295.42 38.55 297.96 41.09 299.8 44.34C301.64 47.59 302.57 51.35 302.57 55.61C302.57 59.87 301.66 63.55 299.84 66.8C298.02 70.05 295.5 72.6 292.28 74.44C289.06 76.29 285.34 77.21 281.13 77.21ZM281.13 70.2C283.83 70.2 286.22 69.58 288.3 68.33C290.38 67.08 292 65.37 293.17 63.18C294.34 61 294.92 58.48 294.92 55.62C294.92 52.76 294.34 50.23 293.17 48.02C292 45.81 290.38 44.08 288.3 42.83C286.22 41.58 283.83 40.96 281.13 40.96C278.43 40.96 276.04 41.58 273.96 42.83C271.88 44.08 270.24 45.81 269.05 48.02C267.85 50.23 267.26 52.76 267.26 55.62C267.26 58.48 267.86 61 269.05 63.18C270.25 65.36 271.88 67.08 273.96 68.33C276.04 69.58 278.43 70.2 281.13 70.2Z" fill="#5B6972"/>
<path d="M310.76 76.98C309.62 76.98 308.67 76.6 307.91 75.85C307.16 75.1 306.78 74.15 306.78 73V38.22C306.78 37.02 307.16 36.06 307.91 35.33C308.66 34.6 309.61 34.24 310.76 34.24C311.91 34.24 312.92 34.6 313.65 35.33C314.38 36.06 314.74 37.02 314.74 38.22V73C314.74 74.14 314.38 75.09 313.65 75.85C312.92 76.6 311.96 76.98 310.76 76.98ZM342.81 76.98C341.67 76.98 340.72 76.6 339.96 75.85C339.21 75.1 338.83 74.15 338.83 73V53.82C338.83 50.86 338.28 48.44 337.19 46.57C336.1 44.7 334.63 43.31 332.78 42.4C330.93 41.49 328.82 41.04 326.43 41.04C324.25 41.04 322.27 41.48 320.5 42.37C318.73 43.25 317.33 44.44 316.29 45.92C315.25 47.4 314.73 49.1 314.73 51.03H309.82C309.82 47.76 310.61 44.83 312.2 42.26C313.78 39.69 315.95 37.65 318.71 36.14C321.46 34.63 324.56 33.88 327.99 33.88C331.42 33.88 334.79 34.65 337.62 36.18C340.45 37.71 342.69 39.96 344.33 42.93C345.97 45.89 346.79 49.53 346.79 53.85V73.03C346.79 74.17 346.41 75.12 345.66 75.88C344.91 76.64 343.96 77.01 342.81 77.01V76.98Z" fill="#5B6972"/>
<path d="M372.36 77.21C368.04 77.21 364.21 76.29 360.86 74.44C357.51 72.6 354.88 70.05 352.98 66.8C351.08 63.55 350.13 59.82 350.13 55.61C350.13 51.4 351.03 47.59 352.82 44.34C354.61 41.09 357.1 38.54 360.27 36.7C363.44 34.86 367.08 33.93 371.19 33.93C375.3 33.93 378.73 34.83 381.64 36.62C384.55 38.41 386.77 40.88 388.31 44.03C389.84 47.18 390.61 50.8 390.61 54.91C390.61 55.9 390.27 56.72 389.6 57.37C388.92 58.02 388.07 58.34 387.03 58.34H355.61V52.1H386.8L383.6 54.28C383.55 51.68 383.03 49.36 382.04 47.3C381.05 45.25 379.65 43.62 377.83 42.43C376.01 41.24 373.8 40.64 371.2 40.64C368.24 40.64 365.7 41.29 363.6 42.59C361.49 43.89 359.9 45.67 358.8 47.93C357.71 50.19 357.16 52.75 357.16 55.61C357.16 58.47 357.81 61.02 359.11 63.25C360.41 65.49 362.2 67.25 364.49 68.55C366.78 69.85 369.4 70.5 372.37 70.5C373.98 70.5 375.63 70.2 377.32 69.6C379.01 69 380.37 68.31 381.41 67.53C382.19 66.96 383.03 66.66 383.94 66.63C384.85 66.6 385.64 66.88 386.32 67.45C387.2 68.23 387.67 69.09 387.72 70.02C387.77 70.96 387.36 71.76 386.47 72.44C384.7 73.84 382.51 74.99 379.88 75.87C377.25 76.75 374.75 77.2 372.36 77.2V77.21Z" fill="#5B6972"/>
<path d="M397.08 61.38C395.94 61.38 394.99 61 394.23 60.25C393.48 59.5 393.1 58.55 393.1 57.4V19.98C393.1 18.78 393.48 17.82 394.23 17.09C394.98 16.36 395.93 16 397.08 16C398.23 16 399.24 16.36 399.97 17.09C400.7 17.82 401.06 18.78 401.06 19.98V57.41C401.06 58.55 400.7 59.5 399.97 60.26C399.24 61.01 398.28 61.39 397.08 61.39V61.38ZM397.08 76.98C395.94 76.98 394.99 76.6 394.23 75.85C393.48 75.1 393.1 74.15 393.1 73V38.22C393.1 37.02 393.48 36.06 394.23 35.33C394.98 34.6 395.93 34.24 397.08 34.24C398.23 34.24 399.24 34.6 399.97 35.33C400.7 36.06 401.06 37.02 401.06 38.22V73C401.06 74.14 400.7 75.09 399.97 75.85C399.24 76.6 398.28 76.98 397.08 76.98ZM429.13 76.98C427.99 76.98 427.04 76.6 426.28 75.85C425.53 75.1 425.15 74.15 425.15 73V53.82C425.15 50.86 424.6 48.44 423.51 46.57C422.42 44.7 420.95 43.31 419.1 42.4C417.25 41.49 415.14 41.04 412.75 41.04C410.57 41.04 408.59 41.48 406.82 42.37C405.05 43.25 403.65 44.44 402.61 45.92C401.57 47.4 401.05 49.1 401.05 51.03H396.14C396.14 47.76 396.93 44.83 398.52 42.26C400.1 39.69 402.27 37.65 405.03 36.14C407.78 34.63 410.88 33.88 414.31 33.88C417.74 33.88 421.11 34.65 423.94 36.18C426.77 37.71 429.01 39.96 430.65 42.93C432.29 45.89 433.11 49.53 433.11 53.85V73.03C433.11 74.17 432.73 75.12 431.98 75.88C431.23 76.64 430.28 77.01 429.13 77.01V76.98Z" fill="#5B6972"/>
<path d="M458.06 77.21C453.85 77.21 450.13 76.29 446.91 74.44C443.69 72.6 441.15 70.05 439.31 66.8C437.46 63.55 436.54 59.82 436.54 55.61C436.54 51.4 437.46 47.59 439.31 44.34C441.15 41.09 443.69 38.54 446.91 36.7C450.13 34.86 453.85 33.93 458.06 33.93C462.27 33.93 465.91 34.85 469.13 36.7C472.35 38.55 474.89 41.09 476.73 44.34C478.57 47.59 479.5 51.35 479.5 55.61C479.5 59.87 478.59 63.55 476.77 66.8C474.95 70.05 472.43 72.6 469.21 74.44C465.99 76.29 462.27 77.21 458.06 77.21ZM458.06 70.2C460.76 70.2 463.15 69.58 465.23 68.33C467.31 67.08 468.93 65.37 470.1 63.18C471.27 61 471.85 58.48 471.85 55.62C471.85 52.76 471.27 50.23 470.1 48.02C468.93 45.81 467.31 44.08 465.23 42.83C463.15 41.58 460.76 40.96 458.06 40.96C455.36 40.96 452.97 41.58 450.89 42.83C448.81 44.08 447.17 45.81 445.98 48.02C444.78 50.23 444.19 52.76 444.19 55.62C444.19 58.48 444.79 61 445.98 63.18C447.18 65.36 448.81 67.08 450.89 68.33C452.97 69.58 455.36 70.2 458.06 70.2Z" fill="#5B6972"/>
<path d="M501.64 77.29C498.05 77.29 494.84 76.52 492.01 74.99C489.18 73.46 486.94 71.21 485.3 68.24C483.66 65.27 482.84 61.64 482.84 57.32V38.14C482.84 37 483.22 36.05 483.97 35.29C484.72 34.54 485.67 34.16 486.82 34.16C487.97 34.16 488.91 34.54 489.67 35.29C490.42 36.04 490.8 36.99 490.8 38.14V57.32C490.8 60.23 491.35 62.64 492.44 64.53C493.53 66.43 495.01 67.83 496.88 68.74C498.75 69.65 500.86 70.1 503.2 70.1C505.54 70.1 507.42 69.66 509.16 68.77C510.9 67.89 512.29 66.69 513.33 65.18C514.37 63.67 514.89 61.98 514.89 60.11H519.8C519.8 63.33 519.01 66.24 517.42 68.84C515.83 71.44 513.68 73.49 510.95 75C508.22 76.51 505.11 77.26 501.63 77.26L501.64 77.29ZM518.88 76.9C517.74 76.9 516.79 76.52 516.03 75.77C515.28 75.02 514.9 74.07 514.9 72.92V38.14C514.9 36.94 515.28 35.98 516.03 35.26C516.78 34.53 517.73 34.17 518.88 34.17C520.03 34.17 521.04 34.53 521.76 35.26C522.49 35.99 522.85 36.95 522.85 38.14V72.92C522.85 74.06 522.49 75.01 521.76 75.77C521.03 76.52 520.07 76.9 518.88 76.9Z" fill="#5B6972"/>
<path d="M544.76 77.21C541.12 77.21 537.75 76.65 534.66 75.53C531.57 74.41 529.16 73 527.45 71.28C526.67 70.45 526.34 69.5 526.48 68.43C526.61 67.36 527.12 66.49 528 65.82C529.04 64.99 530.07 64.64 531.08 64.77C532.09 64.9 532.96 65.35 533.69 66.13C534.57 67.12 535.99 68.04 537.94 68.9C539.89 69.76 542.06 70.19 544.45 70.19C547.46 70.19 549.76 69.7 551.35 68.71C552.93 67.72 553.75 66.45 553.81 64.89C553.86 63.33 553.12 61.98 551.59 60.83C550.06 59.69 547.26 58.75 543.21 58.02C537.96 56.98 534.15 55.42 531.79 53.34C529.42 51.26 528.24 48.71 528.24 45.7C528.24 43.05 529.02 40.85 530.58 39.11C532.14 37.37 534.14 36.07 536.58 35.21C539.02 34.35 541.57 33.92 544.22 33.92C547.65 33.92 550.69 34.47 553.34 35.56C555.99 36.65 558.1 38.16 559.66 40.08C560.39 40.91 560.73 41.78 560.67 42.69C560.62 43.6 560.18 44.37 559.34 44.99C558.51 45.56 557.52 45.74 556.38 45.54C555.24 45.33 554.27 44.87 553.5 44.14C552.2 42.89 550.8 42.03 549.29 41.57C547.78 41.1 546.04 40.87 544.07 40.87C541.78 40.87 539.85 41.26 538.26 42.04C536.67 42.82 535.88 43.96 535.88 45.47C535.88 46.41 536.13 47.25 536.62 48C537.11 48.75 538.09 49.43 539.54 50.03C541 50.63 543.13 51.21 545.93 51.78C549.83 52.56 552.91 53.55 555.17 54.74C557.43 55.94 559.06 57.33 560.04 58.91C561.03 60.5 561.52 62.33 561.52 64.41C561.52 66.8 560.88 68.96 559.61 70.88C558.34 72.8 556.46 74.34 554 75.48C551.53 76.62 548.45 77.19 544.76 77.19V77.21Z" fill="#5B6972"/>
<path d="M583.98 77.21C579.66 77.21 575.83 76.29 572.48 74.44C569.13 72.6 566.5 70.05 564.6 66.8C562.7 63.55 561.75 59.82 561.75 55.61C561.75 51.4 562.65 47.59 564.44 44.34C566.23 41.09 568.72 38.54 571.89 36.7C575.06 34.86 578.7 33.93 582.81 33.93C586.92 33.93 590.35 34.83 593.26 36.62C596.17 38.41 598.39 40.88 599.93 44.03C601.46 47.18 602.23 50.8 602.23 54.91C602.23 55.9 601.89 56.72 601.22 57.37C600.54 58.02 599.69 58.34 598.65 58.34H567.23V52.1H598.42L595.22 54.28C595.17 51.68 594.65 49.36 593.66 47.3C592.67 45.25 591.27 43.62 589.45 42.43C587.63 41.24 585.42 40.64 582.82 40.64C579.86 40.64 577.32 41.29 575.22 42.59C573.11 43.89 571.52 45.67 570.42 47.93C569.33 50.19 568.78 52.75 568.78 55.61C568.78 58.47 569.43 61.02 570.73 63.25C572.03 65.49 573.82 67.25 576.11 68.55C578.4 69.85 581.02 70.5 583.99 70.5C585.6 70.5 587.25 70.2 588.94 69.6C590.63 69 591.99 68.31 593.03 67.53C593.81 66.96 594.65 66.66 595.56 66.63C596.47 66.6 597.26 66.88 597.94 67.45C598.82 68.23 599.29 69.09 599.34 70.02C599.39 70.96 598.98 71.76 598.09 72.44C596.32 73.84 594.13 74.99 591.5 75.87C588.87 76.75 586.37 77.2 583.98 77.2V77.21Z" fill="#5B6972"/>
<path d="M620.59 91.88C620.04 91.88 619.58 91.7 619.21 91.34C618.84 90.98 618.67 90.52 618.67 89.96V59.05C618.75 55.68 619.58 52.68 621.13 50.06C622.68 47.44 624.81 45.36 627.5 43.82C630.19 42.28 633.2 41.52 636.52 41.52C639.84 41.52 642.99 42.3 645.7 43.86C648.41 45.42 650.54 47.55 652.1 50.26C653.66 52.97 654.44 56.03 654.44 59.44C654.44 62.85 653.66 65.85 652.1 68.56C650.54 71.27 648.41 73.4 645.7 74.96C642.99 76.52 639.93 77.3 636.52 77.3C633.45 77.3 630.69 76.64 628.23 75.32C625.78 74 623.87 72.23 622.5 70.01V89.98C622.5 90.53 622.33 90.99 621.99 91.36C621.65 91.72 621.18 91.9 620.58 91.9L620.59 91.88ZM636.53 73.7C639.22 73.7 641.62 73.07 643.73 71.81C645.84 70.55 647.52 68.85 648.75 66.69C649.99 64.54 650.61 62.11 650.61 59.43C650.61 56.75 649.99 54.26 648.75 52.1C647.51 49.95 645.84 48.24 643.73 46.98C641.62 45.72 639.22 45.09 636.53 45.09C633.84 45.09 631.49 45.72 629.36 46.98C627.23 48.24 625.55 49.95 624.34 52.1C623.12 54.25 622.52 56.7 622.52 59.43C622.52 62.16 623.13 64.54 624.34 66.69C625.56 68.85 627.23 70.55 629.36 71.81C631.49 73.07 633.88 73.7 636.53 73.7Z" fill="#5B6972"/>
<path d="M659.7 76.9C659.15 76.9 658.69 76.72 658.32 76.36C657.96 76 657.78 75.54 657.78 74.98V43.81C657.78 43.21 657.96 42.74 658.32 42.4C658.68 42.06 659.14 41.89 659.7 41.89C660.3 41.89 660.77 42.06 661.11 42.4C661.45 42.74 661.62 43.21 661.62 43.81V74.98C661.62 75.53 661.45 75.99 661.11 76.36C660.77 76.72 660.3 76.9 659.7 76.9ZM659.06 55.53C659.32 52.8 660.06 50.38 661.3 48.27C662.54 46.16 664.14 44.51 666.1 43.31C668.06 42.12 670.24 41.52 672.63 41.52C674.25 41.52 675.51 41.71 676.41 42.1C677.31 42.48 677.65 43.17 677.43 44.15C677.3 44.79 677 45.17 676.53 45.3C676.06 45.43 675.49 45.44 674.83 45.33C674.17 45.22 673.43 45.17 672.62 45.17C670.49 45.17 668.59 45.62 666.92 46.51C665.25 47.4 663.95 48.63 663.02 50.19C662.08 51.75 661.61 53.53 661.61 55.53H659.05H659.06Z" fill="#5B6972"/>
<path d="M692.98 77.29C689.57 77.29 686.51 76.51 683.8 74.95C681.09 73.39 678.96 71.26 677.4 68.55C675.84 65.84 675.06 62.8 675.06 59.43C675.06 56.06 675.84 52.96 677.4 50.25C678.96 47.54 681.09 45.41 683.8 43.85C686.51 42.29 689.57 41.51 692.98 41.51C696.39 41.51 699.44 42.29 702.13 43.85C704.82 45.41 706.94 47.54 708.5 50.25C710.06 52.96 710.84 56.02 710.84 59.43C710.84 62.84 710.06 65.84 708.5 68.55C706.94 71.26 704.82 73.39 702.13 74.95C699.44 76.51 696.39 77.29 692.98 77.29ZM692.98 73.7C695.67 73.7 698.07 73.07 700.18 71.81C702.29 70.55 703.96 68.85 705.17 66.69C706.39 64.54 706.99 62.09 706.99 59.36C706.99 56.63 706.38 54.25 705.17 52.1C703.95 49.95 702.29 48.24 700.18 46.98C698.07 45.72 695.67 45.09 692.98 45.09C690.29 45.09 687.94 45.72 685.81 46.98C683.68 48.24 681.99 49.95 680.75 52.1C679.51 54.25 678.89 56.7 678.89 59.43C678.89 62.16 679.51 64.54 680.75 66.69C681.99 68.85 683.67 70.55 685.81 71.81C687.94 73.07 690.33 73.7 692.98 73.7Z" fill="#5B6972"/>
<path d="M704.62 91.88C704.07 91.88 703.6 91.7 703.21 91.34C702.83 90.98 702.63 90.52 702.63 89.96C702.63 89.36 702.82 88.88 703.21 88.52C703.59 88.16 704.06 87.98 704.62 87.98C706.8 87.98 708.7 87.51 710.35 86.57C711.99 85.63 713.28 84.33 714.22 82.67C715.16 81.01 715.63 79.11 715.63 76.97V43.82C715.63 43.22 715.81 42.75 716.17 42.41C716.53 42.07 716.99 41.9 717.55 41.9C718.15 41.9 718.63 42.07 718.99 42.41C719.35 42.75 719.53 43.22 719.53 43.82V76.97C719.53 79.87 718.89 82.44 717.61 84.68C716.33 86.92 714.57 88.68 712.33 89.96C710.09 91.24 707.52 91.88 704.62 91.88ZM717.49 34.53C716.68 34.53 715.99 34.24 715.41 33.67C714.83 33.1 714.55 32.38 714.55 31.53C714.55 30.55 714.86 29.81 715.48 29.32C716.1 28.83 716.79 28.58 717.56 28.58C718.28 28.58 718.96 28.83 719.58 29.32C720.2 29.81 720.51 30.55 720.51 31.53C720.51 32.38 720.22 33.1 719.65 33.67C719.07 34.25 718.36 34.53 717.51 34.53H717.49Z" fill="#5B6972"/>
<path d="M738.99 77.22C735.62 77.22 732.62 76.46 730 74.95C727.38 73.44 725.32 71.33 723.82 68.65C722.33 65.96 721.58 62.89 721.58 59.43C721.58 55.97 722.28 52.85 723.69 50.18C725.1 47.51 727.04 45.41 729.51 43.88C731.98 42.34 734.82 41.58 738.02 41.58C741.22 41.58 743.97 42.32 746.4 43.79C748.83 45.26 750.73 47.29 752.1 49.87C753.47 52.45 754.15 55.43 754.15 58.8C754.15 59.35 753.98 59.79 753.64 60.11C753.3 60.43 752.85 60.59 752.3 60.59H724.14V57.26H753.32L750.5 59.37C750.58 56.6 750.12 54.14 749.09 52.01C748.07 49.88 746.6 48.2 744.71 46.99C742.81 45.77 740.58 45.17 738.02 45.17C735.46 45.17 733.42 45.78 731.52 46.99C729.62 48.21 728.13 49.88 727.04 52.01C725.95 54.14 725.41 56.62 725.41 59.43C725.41 62.24 725.99 64.66 727.14 66.79C728.29 68.92 729.89 70.6 731.94 71.81C733.99 73.02 736.33 73.63 738.98 73.63C740.64 73.63 742.32 73.34 744 72.77C745.68 72.19 747.02 71.44 748 70.5C748.34 70.16 748.76 69.98 749.25 69.96C749.74 69.94 750.16 70.08 750.5 70.38C750.97 70.76 751.21 71.19 751.24 71.66C751.26 72.13 751.06 72.56 750.63 72.94C749.26 74.18 747.48 75.2 745.29 76.01C743.09 76.82 740.99 77.23 738.99 77.23V77.22Z" fill="#5B6972"/>
<path d="M770.42 77.29C767.09 77.29 764.12 76.5 761.49 74.92C758.87 73.34 756.8 71.21 755.28 68.52C753.76 65.83 753.01 62.8 753.01 59.43C753.01 56.06 753.71 52.97 755.12 50.28C756.53 47.59 758.47 45.47 760.94 43.91C763.41 42.35 766.25 41.57 769.45 41.57C772.18 41.57 774.68 42.09 776.94 43.14C779.2 44.19 781.16 45.77 782.83 47.91C783.17 48.34 783.3 48.79 783.21 49.25C783.12 49.72 782.85 50.1 782.38 50.4C782 50.7 781.57 50.82 781.1 50.75C780.63 50.68 780.22 50.44 779.88 50.01C777.15 46.77 773.67 45.15 769.45 45.15C766.93 45.15 764.72 45.77 762.83 47.01C760.93 48.25 759.46 49.93 758.41 52.07C757.36 54.2 756.84 56.66 756.84 59.43C756.84 62.2 757.42 64.54 758.57 66.69C759.72 68.85 761.31 70.55 763.34 71.81C765.37 73.07 767.72 73.7 770.41 73.7C772.16 73.7 773.81 73.44 775.37 72.93C776.93 72.42 778.28 71.63 779.43 70.56C779.81 70.22 780.24 70.03 780.71 69.98C781.18 69.94 781.58 70.09 781.93 70.43C782.36 70.81 782.58 71.25 782.6 71.74C782.62 72.23 782.44 72.65 782.06 72.99C778.94 75.85 775.06 77.28 770.41 77.28L770.42 77.29Z" fill="#5B6972"/>
<path d="M783.86 46.63C783.35 46.63 782.93 46.47 782.61 46.15C782.29 45.83 782.13 45.41 782.13 44.9C782.13 44.39 782.29 43.97 782.61 43.65C782.93 43.33 783.35 43.17 783.86 43.17H801.2C801.71 43.17 802.13 43.33 802.45 43.65C802.77 43.97 802.93 44.39 802.93 44.9C802.93 45.41 802.77 45.83 802.45 46.15C802.13 46.47 801.71 46.63 801.2 46.63H783.86ZM800.94 76.9C798.59 76.86 796.5 76.31 794.67 75.27C792.84 74.23 791.41 72.77 790.38 70.92C789.36 69.06 788.84 66.96 788.84 64.62V32.75C788.84 32.15 789.02 31.67 789.38 31.31C789.74 30.95 790.2 30.77 790.76 30.77C791.36 30.77 791.84 30.95 792.2 31.31C792.56 31.67 792.74 32.15 792.74 32.75V64.62C792.74 67.09 793.51 69.11 795.04 70.67C796.58 72.23 798.56 73.01 800.99 73.01H802.4C803 73.01 803.48 73.19 803.84 73.55C804.2 73.91 804.38 74.39 804.38 74.99C804.38 75.54 804.2 76 803.84 76.37C803.48 76.74 803 76.91 802.4 76.91H800.93L800.94 76.9Z" fill="#5B6972"/>
<path d="M85.57 48.3185C98.7309 48.3185 109.4 37.6495 109.4 24.4885C109.4 11.3276 98.7309 0.658539 85.57 0.658539C72.4091 0.658539 61.74 11.3276 61.74 24.4885C61.74 37.6495 72.4091 48.3185 85.57 48.3185Z" fill="#F9BBC6"/>
<path d="M101.68 58.7985H68.65C64.2317 58.7985 60.65 62.3802 60.65 66.7985V99.4385C60.65 103.857 64.2317 107.439 68.65 107.439H101.68C106.098 107.439 109.68 103.857 109.68 99.4385V66.7985C109.68 62.3802 106.098 58.7985 101.68 58.7985Z" fill="#029AFF"/>
<path d="M0 103.119V64.2086C0 61.3086 2.35 58.9586 5.25 58.9586H44.16C47.27 58.9586 49.74 61.6486 49.39 64.7386C46.74 87.5786 28.62 105.699 5.78 108.349C2.69 108.709 0 106.239 0 103.119Z" fill="#FFDB57"/>
<path d="M49.67 42.2485V6.99854C49.67 0.788541 42.17 -2.33146 37.77 2.03854L2.23 37.2885C-2.2 41.6785 0.91 49.2285 7.15 49.2285H42.69C46.55 49.2285 49.67 46.0985 49.67 42.2485Z" fill="#FFAE45"/>
</g>
<defs>
<clipPath id="clip0_196_125">
<rect width="804.4" height="108.39" fill="white"/>
</clipPath>
</defs>
</svg>
