<svg width="174" height="173" viewBox="0 0 174 173" fill="none" xmlns="http://www.w3.org/2000/svg">
<rect width="173.316" height="172.02" rx="30" fill="url(#paint0_linear_196_245)"/>
<rect width="173.316" height="172.02" rx="30" fill="#FEFEFE"/>
<path d="M117.388 80.1367C130.549 80.1367 141.218 69.4677 141.218 56.3067C141.218 43.1458 130.549 32.4767 117.388 32.4767C104.227 32.4767 93.5582 43.1458 93.5582 56.3067C93.5582 69.4677 104.227 80.1367 117.388 80.1367Z" fill="#F9BBC6"/>
<path d="M133.498 90.6167H100.468C96.0499 90.6167 92.4682 94.1984 92.4682 98.6167V131.257C92.4682 135.675 96.0499 139.257 100.468 139.257H133.498C137.916 139.257 141.498 135.675 141.498 131.257V98.6167C141.498 94.1984 137.916 90.6167 133.498 90.6167Z" fill="#029AFF"/>
<path d="M31.8182 134.937V96.0267C31.8182 93.1267 34.1682 90.7767 37.0682 90.7767H75.9782C79.0882 90.7767 81.5582 93.4667 81.2082 96.5567C78.5582 119.397 60.4382 137.517 37.5982 140.167C34.5082 140.527 31.8182 138.057 31.8182 134.937Z" fill="#FFDB57"/>
<path d="M81.4882 74.0667V38.8167C81.4882 32.6067 73.9882 29.4867 69.5882 33.8567L34.0482 69.1067C29.6182 73.4967 32.7282 81.0467 38.9682 81.0467H74.5082C78.3682 81.0467 81.4882 77.9167 81.4882 74.0667Z" fill="#FFAE45"/>
<defs>
<linearGradient id="paint0_linear_196_245" x1="86.6582" y1="0" x2="86.6582" y2="172.02" gradientUnits="userSpaceOnUse">
<stop stop-color="white"/>
<stop offset="1" stop-color="#F2F9FF"/>
</linearGradient>
</defs>
</svg>
