<svg width="379" height="114" viewBox="0 0 379 114" fill="none" xmlns="http://www.w3.org/2000/svg">
<rect width="378.589" height="113.061" rx="30" fill="url(#paint0_linear_196_152)"/>
<path d="M338.771 31.8182H305.741C301.323 31.8182 297.741 35.3999 297.741 39.8182V72.4582C297.741 76.8765 301.323 80.4582 305.741 80.4582H338.771C343.189 80.4582 346.771 76.8765 346.771 72.4582V39.8182C346.771 35.3999 343.189 31.8182 338.771 31.8182Z" fill="#029AFF"/>
<path d="M81.3396 74.0667V38.8167C81.3396 32.6067 73.8396 29.4867 69.4396 33.8567L33.8996 69.1067C29.4696 73.4967 32.5796 81.0467 38.8196 81.0467H74.3596C78.2196 81.0467 81.3396 77.9167 81.3396 74.0667Z" fill="#FFAE45"/>
<path d="M208.545 75.9782V37.0682C208.545 34.1682 210.895 31.8182 213.795 31.8182H252.705C255.815 31.8182 258.285 34.5082 257.935 37.5982C255.285 60.4382 237.165 78.5582 214.325 81.2082C211.235 81.5682 208.545 79.0982 208.545 75.9782Z" fill="#FFDB57"/>
<path d="M144.942 79.4782C158.103 79.4782 168.772 68.8091 168.772 55.6482C168.772 42.4872 158.103 31.8182 144.942 31.8182C131.781 31.8182 121.112 42.4872 121.112 55.6482C121.112 68.8091 131.781 79.4782 144.942 79.4782Z" fill="#F9BBC6"/>
<defs>
<linearGradient id="paint0_linear_196_152" x1="189.295" y1="0" x2="189.295" y2="113.061" gradientUnits="userSpaceOnUse">
<stop stop-color="white"/>
<stop offset="1" stop-color="#F2F9FF"/>
</linearGradient>
</defs>
</svg>
