<svg width="283" height="117" viewBox="0 0 283 117" fill="none" xmlns="http://www.w3.org/2000/svg">
<path d="M87.48 84.4337V32.2338C87.48 23.0377 76.4393 18.4175 69.9621 24.8888L17.644 77.0887C11.1226 83.5896 15.7008 94.77 24.8867 94.77H77.2048C82.887 94.77 87.48 90.1349 87.48 84.4337Z" fill="#FFAE45"/>
<path d="M121.772 71.2593C118.662 71.2593 115.882 70.5594 113.432 69.1598C111.022 67.7212 109.117 65.7966 107.717 63.3861C106.356 60.9366 105.676 58.1762 105.676 55.1046C105.676 51.9554 106.356 49.156 107.717 46.7066C109.078 44.2571 110.944 42.352 113.316 40.9912C115.687 39.5915 118.409 38.8917 121.481 38.8917C123.775 38.8917 125.874 39.3388 127.779 40.233C129.684 41.0884 131.395 42.3909 132.911 44.1405C133.456 44.7626 133.65 45.4041 133.495 46.065C133.339 46.726 132.911 47.3092 132.211 47.8146C131.667 48.2034 131.065 48.3395 130.404 48.2229C129.743 48.0674 129.14 47.7174 128.596 47.1731C126.691 45.1514 124.319 44.1405 121.481 44.1405C119.498 44.1405 117.748 44.607 116.232 45.5402C114.715 46.4344 113.53 47.698 112.674 49.331C111.819 50.9639 111.391 52.8885 111.391 55.1046C111.391 57.2042 111.819 59.0704 112.674 60.7034C113.569 62.3363 114.793 63.6388 116.348 64.6108C117.904 65.5439 119.712 66.0105 121.772 66.0105C123.133 66.0105 124.319 65.855 125.33 65.5439C126.379 65.194 127.332 64.6691 128.187 63.9693C128.809 63.4638 129.451 63.1917 130.112 63.1528C130.773 63.075 131.356 63.25 131.862 63.6777C132.523 64.222 132.892 64.8441 132.97 65.5439C133.047 66.2049 132.814 66.8075 132.27 67.3518C129.47 69.9568 125.971 71.2593 121.772 71.2593ZM142.277 51.0806C142.277 48.7478 142.84 46.6677 143.968 44.8403C145.134 42.9741 146.69 41.4966 148.634 40.408C150.578 39.3194 152.716 38.775 155.049 38.775C157.382 38.775 159.112 39.1638 160.239 39.9414C161.406 40.6802 161.853 41.5744 161.581 42.6242C161.464 43.1685 161.231 43.5962 160.881 43.9072C160.57 44.1794 160.2 44.3543 159.773 44.4321C159.345 44.5098 158.878 44.4904 158.373 44.3738C155.885 43.8683 153.649 43.8294 151.666 44.2571C149.683 44.6848 148.109 45.4818 146.942 46.6482C145.815 47.8146 145.251 49.2921 145.251 51.0806H142.277ZM142.335 71.026C141.402 71.026 140.683 70.7927 140.177 70.3262C139.672 69.8207 139.419 69.082 139.419 68.11V42.041C139.419 41.1078 139.672 40.3886 140.177 39.8831C140.683 39.3777 141.402 39.125 142.335 39.125C143.307 39.125 144.026 39.3777 144.493 39.8831C144.998 40.3497 145.251 41.069 145.251 42.041V68.11C145.251 69.0431 144.998 69.7624 144.493 70.2678C144.026 70.7733 143.307 71.026 142.335 71.026ZM168.423 71.026C167.568 71.026 166.849 70.7538 166.265 70.2095C165.721 69.6263 165.449 68.907 165.449 68.0517V42.0993C165.449 41.205 165.721 40.4858 166.265 39.9414C166.849 39.3971 167.568 39.125 168.423 39.125C169.317 39.125 170.037 39.3971 170.581 39.9414C171.125 40.4858 171.398 41.205 171.398 42.0993V68.0517C171.398 68.907 171.125 69.6263 170.581 70.2095C170.037 70.7538 169.317 71.026 168.423 71.026ZM168.423 33.9345C167.373 33.9345 166.46 33.5651 165.682 32.8264C164.943 32.0488 164.574 31.1351 164.574 30.0854C164.574 29.0356 164.943 28.1414 165.682 27.4026C166.46 26.625 167.373 26.2362 168.423 26.2362C169.473 26.2362 170.367 26.625 171.106 27.4026C171.884 28.1414 172.272 29.0356 172.272 30.0854C172.272 31.1351 171.884 32.0488 171.106 32.8264C170.367 33.5651 169.473 33.9345 168.423 33.9345ZM191.154 71.2593C188.432 71.2593 185.905 70.851 183.572 70.0346C181.278 69.1792 179.49 68.11 178.207 66.827C177.624 66.2049 177.371 65.505 177.449 64.7274C177.565 63.911 177.954 63.25 178.615 62.7446C179.393 62.1225 180.151 61.8698 180.89 61.9864C181.667 62.0642 182.328 62.3946 182.872 62.9778C183.533 63.7166 184.583 64.4164 186.022 65.0774C187.499 65.6994 189.132 66.0105 190.921 66.0105C193.176 66.0105 194.886 65.6411 196.053 64.9024C197.258 64.1637 197.88 63.2111 197.919 62.0447C197.958 60.8783 197.394 59.8674 196.228 59.0121C195.1 58.1567 193.02 57.4569 189.987 56.9126C186.061 56.135 183.203 54.9686 181.414 53.4134C179.665 51.8582 178.79 49.953 178.79 47.698C178.79 45.7151 179.373 44.0822 180.54 42.7991C181.706 41.4772 183.203 40.5052 185.03 39.8831C186.858 39.2222 188.763 38.8917 190.746 38.8917C193.312 38.8917 195.586 39.2999 197.569 40.1164C199.552 40.9329 201.127 42.0604 202.293 43.499C202.837 44.121 203.09 44.782 203.051 45.4818C203.012 46.1428 202.682 46.7066 202.06 47.1731C201.438 47.6008 200.699 47.7369 199.844 47.5814C198.988 47.4258 198.269 47.0759 197.686 46.5316C196.714 45.5985 195.664 44.957 194.536 44.607C193.409 44.2571 192.106 44.0822 190.629 44.0822C188.918 44.0822 187.46 44.3738 186.255 44.957C185.089 45.5402 184.505 46.3955 184.505 47.523C184.505 48.2229 184.68 48.8644 185.03 49.4476C185.419 49.9919 186.158 50.4974 187.246 50.9639C188.335 51.3916 189.929 51.8193 192.029 52.247C194.945 52.8302 197.239 53.5689 198.91 54.4631C200.621 55.3574 201.846 56.4071 202.585 57.6124C203.323 58.7788 203.693 60.1396 203.693 61.6948C203.693 63.4833 203.207 65.0968 202.235 66.5354C201.302 67.9739 199.902 69.1209 198.036 69.9762C196.208 70.8316 193.914 71.2593 191.154 71.2593ZM211.856 71.026C211 71.026 210.281 70.7538 209.698 70.2095C209.153 69.6263 208.881 68.907 208.881 68.0517V42.0993C208.881 41.205 209.153 40.4858 209.698 39.9414C210.281 39.3971 211 39.125 211.856 39.125C212.75 39.125 213.469 39.3971 214.013 39.9414C214.558 40.4858 214.83 41.205 214.83 42.0993V68.0517C214.83 68.907 214.558 69.6263 214.013 70.2095C213.469 70.7538 212.75 71.026 211.856 71.026ZM211.856 33.9345C210.806 33.9345 209.892 33.5651 209.115 32.8264C208.376 32.0488 208.007 31.1351 208.007 30.0854C208.007 29.0356 208.376 28.1414 209.115 27.4026C209.892 26.625 210.806 26.2362 211.856 26.2362C212.905 26.2362 213.8 26.625 214.538 27.4026C215.316 28.1414 215.705 29.0356 215.705 30.0854C215.705 31.1351 215.316 32.0488 214.538 32.8264C213.8 33.5651 212.905 33.9345 211.856 33.9345ZM234.586 71.2593C231.865 71.2593 229.338 70.851 227.005 70.0346C224.711 69.1792 222.922 68.11 221.639 66.827C221.056 66.2049 220.803 65.505 220.881 64.7274C220.998 63.911 221.387 63.25 222.048 62.7446C222.825 62.1225 223.583 61.8698 224.322 61.9864C225.1 62.0642 225.761 62.3946 226.305 62.9778C226.966 63.7166 228.016 64.4164 229.454 65.0774C230.932 65.6994 232.565 66.0105 234.353 66.0105C236.608 66.0105 238.319 65.6411 239.485 64.9024C240.69 64.1637 241.313 63.2111 241.351 62.0447C241.39 60.8783 240.827 59.8674 239.66 59.0121C238.533 58.1567 236.453 57.4569 233.42 56.9126C229.493 56.135 226.635 54.9686 224.847 53.4134C223.097 51.8582 222.222 49.953 222.222 47.698C222.222 45.7151 222.806 44.0822 223.972 42.7991C225.138 41.4772 226.635 40.5052 228.463 39.8831C230.29 39.2222 232.195 38.8917 234.178 38.8917C236.744 38.8917 239.019 39.2999 241.002 40.1164C242.984 40.9329 244.559 42.0604 245.725 43.499C246.27 44.121 246.522 44.782 246.484 45.4818C246.445 46.1428 246.114 46.7066 245.492 47.1731C244.87 47.6008 244.131 47.7369 243.276 47.5814C242.421 47.4258 241.701 47.0759 241.118 46.5316C240.146 45.5985 239.096 44.957 237.969 44.607C236.841 44.2571 235.539 44.0822 234.061 44.0822C232.351 44.0822 230.893 44.3738 229.687 44.957C228.521 45.5402 227.938 46.3955 227.938 47.523C227.938 48.2229 228.113 48.8644 228.463 49.4476C228.852 49.9919 229.59 50.4974 230.679 50.9639C231.768 51.3916 233.362 51.8193 235.461 52.247C238.377 52.8302 240.671 53.5689 242.343 54.4631C244.054 55.3574 245.278 56.4071 246.017 57.6124C246.756 58.7788 247.125 60.1396 247.125 61.6948C247.125 63.4833 246.639 65.0968 245.667 66.5354C244.734 67.9739 243.334 69.1209 241.468 69.9762C239.641 70.8316 237.347 71.2593 234.586 71.2593Z" fill="#FBAD46"/>
<path d="M106.072 91.614C105.74 91.614 105.473 91.5218 105.27 91.3373C105.086 91.1344 104.993 90.8669 104.993 90.5348V77.5568C104.993 77.2247 105.086 76.9664 105.27 76.7819C105.473 76.579 105.74 76.4776 106.072 76.4776C106.386 76.4776 106.635 76.579 106.82 76.7819C107.023 76.9664 107.124 77.2247 107.124 77.5568V90.5348C107.124 90.8669 107.023 91.1344 106.82 91.3373C106.635 91.5218 106.386 91.614 106.072 91.614ZM106.045 73.5997C105.639 73.5997 105.288 73.4521 104.993 73.1569C104.698 72.8618 104.551 72.502 104.551 72.0777C104.551 71.6165 104.698 71.2568 104.993 70.9985C105.307 70.7218 105.667 70.5835 106.072 70.5835C106.46 70.5835 106.801 70.7218 107.096 70.9985C107.41 71.2568 107.567 71.6165 107.567 72.0777C107.567 72.502 107.419 72.8618 107.124 73.1569C106.829 73.4521 106.469 73.5997 106.045 73.5997ZM124.974 91.614C124.66 91.614 124.402 91.5126 124.199 91.3096C123.996 91.1067 123.895 90.8577 123.895 90.5625V83.3678C123.895 82.2241 123.673 81.2832 123.231 80.5453C122.806 79.8074 122.216 79.254 121.46 78.885C120.722 78.516 119.882 78.3316 118.942 78.3316C118.038 78.3316 117.217 78.5068 116.479 78.8573C115.759 79.2078 115.187 79.6875 114.763 80.2963C114.339 80.905 114.127 81.5968 114.127 82.3716H112.605C112.642 81.2094 112.955 80.1763 113.546 79.2724C114.136 78.35 114.92 77.6305 115.898 77.114C116.875 76.579 117.964 76.3115 119.163 76.3115C120.473 76.3115 121.644 76.5882 122.677 77.1417C123.71 77.6767 124.522 78.4699 125.112 79.5214C125.721 80.573 126.026 81.8551 126.026 83.3678V90.5625C126.026 90.8577 125.924 91.1067 125.721 91.3096C125.518 91.5126 125.269 91.614 124.974 91.614ZM113.075 91.614C112.743 91.614 112.476 91.5218 112.273 91.3373C112.088 91.1344 111.996 90.8761 111.996 90.5625V77.5568C111.996 77.2247 112.088 76.9664 112.273 76.7819C112.476 76.579 112.743 76.4776 113.075 76.4776C113.389 76.4776 113.638 76.579 113.822 76.7819C114.025 76.9664 114.127 77.2247 114.127 77.5568V90.5625C114.127 90.8761 114.025 91.1344 113.822 91.3373C113.638 91.5218 113.389 91.614 113.075 91.614ZM136.091 91.614C135.114 91.614 134.237 91.3834 133.463 90.9222C132.706 90.461 132.107 89.8338 131.664 89.0405C131.221 88.2288 131 87.3064 131 86.2734V72.7419C131 72.4283 131.092 72.17 131.276 71.9671C131.479 71.7641 131.738 71.6627 132.051 71.6627C132.365 71.6627 132.623 71.7641 132.826 71.9671C133.029 72.17 133.13 72.4283 133.13 72.7419V86.2734C133.13 87.2142 133.407 87.989 133.961 88.5978C134.514 89.1881 135.224 89.4833 136.091 89.4833H136.839C137.134 89.4833 137.373 89.5848 137.558 89.7877C137.742 89.9906 137.835 90.2489 137.835 90.5625C137.835 90.8761 137.724 91.1344 137.503 91.3373C137.281 91.5218 137.005 91.614 136.672 91.614H136.091ZM129.201 78.885C128.924 78.885 128.694 78.802 128.509 78.636C128.325 78.4515 128.233 78.2301 128.233 77.9718C128.233 77.6951 128.325 77.4737 128.509 77.3077C128.694 77.1232 128.924 77.031 129.201 77.031H136.257C136.534 77.031 136.765 77.1232 136.949 77.3077C137.134 77.4737 137.226 77.6951 137.226 77.9718C137.226 78.2301 137.134 78.4515 136.949 78.636C136.765 78.802 136.534 78.885 136.257 78.885H129.201ZM147.612 91.7524C146.118 91.7524 144.79 91.4295 143.628 90.7839C142.484 90.1197 141.58 89.2066 140.916 88.0444C140.27 86.8821 139.947 85.5539 139.947 84.0596C139.947 82.5469 140.252 81.2187 140.86 80.0749C141.488 78.9127 142.345 77.9995 143.434 77.3354C144.522 76.6713 145.777 76.3392 147.197 76.3392C148.599 76.3392 149.817 76.662 150.85 77.3077C151.901 77.9349 152.713 78.8112 153.285 79.9365C153.857 81.0618 154.143 82.344 154.143 83.7829C154.143 84.0781 154.051 84.3179 153.866 84.5024C153.682 84.6684 153.442 84.7514 153.147 84.7514H141.386V82.9804H153.368L152.178 83.8382C152.197 82.7683 152.003 81.809 151.597 80.9604C151.191 80.1118 150.61 79.4477 149.854 78.968C149.116 78.4884 148.23 78.2485 147.197 78.2485C146.146 78.2485 145.223 78.4976 144.43 78.9957C143.637 79.4938 143.019 80.1856 142.576 81.0711C142.152 81.9381 141.94 82.9343 141.94 84.0596C141.94 85.1849 142.179 86.1811 142.659 87.0482C143.157 87.9152 143.831 88.5978 144.679 89.0959C145.528 89.594 146.505 89.843 147.612 89.843C148.276 89.843 148.941 89.7323 149.605 89.511C150.287 89.2711 150.831 88.976 151.237 88.6255C151.44 88.4594 151.671 88.3764 151.929 88.3764C152.187 88.358 152.409 88.4225 152.593 88.5701C152.833 88.7915 152.953 89.0313 152.953 89.2896C152.971 89.5479 152.87 89.7692 152.649 89.9537C152.04 90.4702 151.265 90.9038 150.324 91.2543C149.383 91.5863 148.479 91.7524 147.612 91.7524ZM158.079 82.2886C158.135 81.1449 158.43 80.121 158.965 79.2171C159.518 78.3131 160.229 77.6029 161.096 77.0863C161.981 76.5698 162.959 76.3115 164.029 76.3115C164.877 76.3115 165.532 76.4314 165.994 76.6713C166.455 76.9111 166.63 77.2616 166.519 77.7228C166.445 77.9995 166.316 78.184 166.132 78.2762C165.966 78.3685 165.754 78.4054 165.495 78.3869C165.256 78.3685 164.979 78.35 164.665 78.3316C163.632 78.2393 162.71 78.35 161.898 78.6636C161.105 78.9588 160.468 79.42 159.989 80.0472C159.528 80.6744 159.297 81.4216 159.297 82.2886H158.079ZM158.245 91.614C157.913 91.614 157.655 91.5218 157.471 91.3373C157.286 91.1528 157.194 90.8945 157.194 90.5625V77.5291C157.194 77.197 157.286 76.9388 157.471 76.7543C157.655 76.5698 157.913 76.4776 158.245 76.4776C158.577 76.4776 158.836 76.5698 159.02 76.7543C159.205 76.9388 159.297 77.197 159.297 77.5291V90.5625C159.297 90.8945 159.205 91.1528 159.02 91.3373C158.836 91.5218 158.577 91.614 158.245 91.614ZM174.489 91.614C174.046 91.614 173.714 91.3742 173.493 90.8945L167.35 77.8611C167.239 77.6213 167.23 77.3815 167.322 77.1417C167.414 76.9019 167.599 76.7174 167.875 76.5882C168.134 76.4591 168.383 76.4407 168.623 76.5329C168.862 76.6251 169.047 76.7912 169.176 77.031L175.07 89.7877H173.936L179.747 77.031C179.857 76.7727 180.042 76.6067 180.3 76.5329C180.577 76.4407 180.844 76.4499 181.103 76.5606C181.361 76.6897 181.536 76.8834 181.628 77.1417C181.721 77.3815 181.711 77.6121 181.601 77.8335L175.54 90.8945C175.319 91.3742 174.969 91.614 174.489 91.614ZM190.378 91.7524C188.884 91.7524 187.556 91.4295 186.393 90.7839C185.25 90.1197 184.346 89.2066 183.682 88.0444C183.036 86.8821 182.713 85.5539 182.713 84.0596C182.713 82.5469 183.017 81.2187 183.626 80.0749C184.254 78.9127 185.111 77.9995 186.2 77.3354C187.288 76.6713 188.543 76.3392 189.963 76.3392C191.365 76.3392 192.583 76.662 193.616 77.3077C194.667 77.9349 195.479 78.8112 196.051 79.9365C196.623 81.0618 196.909 82.344 196.909 83.7829C196.909 84.0781 196.816 84.3179 196.632 84.5024C196.448 84.6684 196.208 84.7514 195.913 84.7514H184.152V82.9804H196.134L194.944 83.8382C194.962 82.7683 194.769 81.809 194.363 80.9604C193.957 80.1118 193.376 79.4477 192.62 78.968C191.882 78.4884 190.996 78.2485 189.963 78.2485C188.912 78.2485 187.989 78.4976 187.196 78.9957C186.403 79.4938 185.785 80.1856 185.342 81.0711C184.918 81.9381 184.705 82.9343 184.705 84.0596C184.705 85.1849 184.945 86.1811 185.425 87.0482C185.923 87.9152 186.596 88.5978 187.445 89.0959C188.294 89.594 189.271 89.843 190.378 89.843C191.042 89.843 191.706 89.7323 192.371 89.511C193.053 89.2711 193.597 88.976 194.003 88.6255C194.206 88.4594 194.437 88.3764 194.695 88.3764C194.953 88.358 195.175 88.4225 195.359 88.5701C195.599 88.7915 195.719 89.0313 195.719 89.2896C195.737 89.5479 195.636 89.7692 195.414 89.9537C194.806 90.4702 194.031 90.9038 193.09 91.2543C192.149 91.5863 191.245 91.7524 190.378 91.7524ZM212.938 91.614C212.624 91.614 212.366 91.5126 212.163 91.3096C211.96 91.1067 211.859 90.8577 211.859 90.5625V83.3678C211.859 82.2241 211.637 81.2832 211.194 80.5453C210.77 79.8074 210.18 79.254 209.423 78.885C208.686 78.516 207.846 78.3316 206.905 78.3316C206.001 78.3316 205.18 78.5068 204.443 78.8573C203.723 79.2078 203.151 79.6875 202.727 80.2963C202.303 80.905 202.09 81.5968 202.09 82.3716H200.569C200.605 81.2094 200.919 80.1763 201.509 79.2724C202.1 78.35 202.884 77.6305 203.861 77.114C204.839 76.579 205.928 76.3115 207.127 76.3115C208.437 76.3115 209.608 76.5882 210.641 77.1417C211.674 77.6767 212.486 78.4699 213.076 79.5214C213.685 80.573 213.989 81.8551 213.989 83.3678V90.5625C213.989 90.8577 213.888 91.1067 213.685 91.3096C213.482 91.5126 213.233 91.614 212.938 91.614ZM201.039 91.614C200.707 91.614 200.439 91.5218 200.236 91.3373C200.052 91.1344 199.96 90.8761 199.96 90.5625V77.5568C199.96 77.2247 200.052 76.9664 200.236 76.7819C200.439 76.579 200.707 76.4776 201.039 76.4776C201.353 76.4776 201.602 76.579 201.786 76.7819C201.989 76.9664 202.09 77.2247 202.09 77.5568V90.5625C202.09 90.8761 201.989 91.1344 201.786 91.3373C201.602 91.5218 201.353 91.614 201.039 91.614ZM224.055 91.614C223.077 91.614 222.201 91.3834 221.426 90.9222C220.67 90.461 220.07 89.8338 219.628 89.0405C219.185 88.2288 218.964 87.3064 218.964 86.2734V72.7419C218.964 72.4283 219.056 72.17 219.24 71.9671C219.443 71.7641 219.701 71.6627 220.015 71.6627C220.329 71.6627 220.587 71.7641 220.79 71.9671C220.993 72.17 221.094 72.4283 221.094 72.7419V86.2734C221.094 87.2142 221.371 87.989 221.924 88.5978C222.478 89.1881 223.188 89.4833 224.055 89.4833H224.802C225.097 89.4833 225.337 89.5848 225.522 89.7877C225.706 89.9906 225.798 90.2489 225.798 90.5625C225.798 90.8761 225.688 91.1344 225.466 91.3373C225.245 91.5218 224.968 91.614 224.636 91.614H224.055ZM217.165 78.885C216.888 78.885 216.658 78.802 216.473 78.636C216.289 78.4515 216.196 78.2301 216.196 77.9718C216.196 77.6951 216.289 77.4737 216.473 77.3077C216.658 77.1232 216.888 77.031 217.165 77.031H224.221C224.498 77.031 224.729 77.1232 224.913 77.3077C225.097 77.4737 225.19 77.6951 225.19 77.9718C225.19 78.2301 225.097 78.4515 224.913 78.636C224.729 78.802 224.498 78.885 224.221 78.885H217.165ZM230.235 91.614C229.903 91.614 229.636 91.5218 229.433 91.3373C229.249 91.1344 229.156 90.8669 229.156 90.5348V77.5568C229.156 77.2247 229.249 76.9664 229.433 76.7819C229.636 76.579 229.903 76.4776 230.235 76.4776C230.549 76.4776 230.798 76.579 230.983 76.7819C231.186 76.9664 231.287 77.2247 231.287 77.5568V90.5348C231.287 90.8669 231.186 91.1344 230.983 91.3373C230.798 91.5218 230.549 91.614 230.235 91.614ZM230.208 73.5997C229.802 73.5997 229.451 73.4521 229.156 73.1569C228.861 72.8618 228.714 72.502 228.714 72.0777C228.714 71.6165 228.861 71.2568 229.156 70.9985C229.47 70.7218 229.83 70.5835 230.235 70.5835C230.623 70.5835 230.964 70.7218 231.259 70.9985C231.573 71.2568 231.73 71.6165 231.73 72.0777C231.73 72.502 231.582 72.8618 231.287 73.1569C230.992 73.4521 230.632 73.5997 230.208 73.5997ZM243.049 91.7524C241.573 91.7524 240.254 91.4203 239.092 90.7562C237.93 90.0921 237.017 89.1789 236.353 88.0167C235.689 86.8545 235.356 85.5354 235.356 84.0596C235.356 82.5653 235.689 81.2371 236.353 80.0749C237.017 78.9127 237.93 77.9995 239.092 77.3354C240.254 76.6713 241.573 76.3392 243.049 76.3392C244.525 76.3392 245.835 76.6713 246.979 77.3354C248.141 77.9995 249.054 78.9127 249.718 80.0749C250.382 81.2371 250.724 82.5653 250.742 84.0596C250.742 85.5354 250.401 86.8545 249.718 88.0167C249.054 89.1789 248.141 90.0921 246.979 90.7562C245.835 91.4203 244.525 91.7524 243.049 91.7524ZM243.049 89.8153C244.119 89.8153 245.079 89.5663 245.927 89.0682C246.776 88.5701 247.44 87.8875 247.919 87.0205C248.399 86.1535 248.639 85.1665 248.639 84.0596C248.639 82.9527 248.399 81.9658 247.919 81.0987C247.44 80.2132 246.776 79.5214 245.927 79.0234C245.079 78.5253 244.119 78.2762 243.049 78.2762C241.979 78.2762 241.02 78.5253 240.171 79.0234C239.323 79.5214 238.649 80.2132 238.151 81.0987C237.672 81.9658 237.432 82.9527 237.432 84.0596C237.432 85.1665 237.672 86.1535 238.151 87.0205C238.649 87.8875 239.323 88.5701 240.171 89.0682C241.02 89.5663 241.979 89.8153 243.049 89.8153ZM267.311 91.614C266.997 91.614 266.739 91.5126 266.536 91.3096C266.333 91.1067 266.231 90.8577 266.231 90.5625V83.3678C266.231 82.2241 266.01 81.2832 265.567 80.5453C265.143 79.8074 264.553 79.254 263.796 78.885C263.058 78.516 262.219 78.3316 261.278 78.3316C260.374 78.3316 259.553 78.5068 258.815 78.8573C258.096 79.2078 257.524 79.6875 257.1 80.2963C256.675 80.905 256.463 81.5968 256.463 82.3716H254.941C254.978 81.2094 255.292 80.1763 255.882 79.2724C256.473 78.35 257.257 77.6305 258.234 77.114C259.212 76.579 260.301 76.3115 261.5 76.3115C262.809 76.3115 263.981 76.5882 265.014 77.1417C266.047 77.6767 266.859 78.4699 267.449 79.5214C268.058 80.573 268.362 81.8551 268.362 83.3678V90.5625C268.362 90.8577 268.261 91.1067 268.058 91.3096C267.855 91.5126 267.606 91.614 267.311 91.614ZM255.412 91.614C255.08 91.614 254.812 91.5218 254.609 91.3373C254.425 91.1344 254.333 90.8761 254.333 90.5625V77.5568C254.333 77.2247 254.425 76.9664 254.609 76.7819C254.812 76.579 255.08 76.4776 255.412 76.4776C255.725 76.4776 255.974 76.579 256.159 76.7819C256.362 76.9664 256.463 77.2247 256.463 77.5568V90.5625C256.463 90.8761 256.362 91.1344 256.159 91.3373C255.974 91.5218 255.725 91.614 255.412 91.614Z" fill="#5B6972"/>
</svg>
